<svg width="4" height="14" viewBox="0 0 4 14" fill="none" xmlns="http://www.w3.org/2000/svg">
<path fill-rule="evenodd" clip-rule="evenodd" d="M3.66658 1.99992C3.66658 1.08325 2.91658 0.333252 1.99992 0.333252C1.08325 0.333252 0.333252 1.08325 0.333252 1.99992C0.333252 2.91658 1.08325 3.66658 1.99992 3.66658C2.91658 3.66658 3.66658 2.91658 3.66658 1.99992ZM0.333252 6.99992C0.333252 7.91658 1.08325 8.66658 1.99992 8.66658C2.91658 8.66658 3.66658 7.91658 3.66658 6.99992C3.66658 6.08325 2.91658 5.33325 1.99992 5.33325C1.08325 5.33325 0.333252 6.08325 0.333252 6.99992ZM1.99992 10.3333C2.91658 10.3333 3.66658 11.0833 3.66658 11.9999C3.66658 12.9166 2.91658 13.6666 1.99992 13.6666C1.08325 13.6666 0.333252 12.9166 0.333252 11.9999C0.333252 11.0833 1.08325 10.3333 1.99992 10.3333Z" fill="white"/>
</svg>
