<svg width="20" height="20" viewBox="0 0 20 20" fill="none" xmlns="http://www.w3.org/2000/svg">
<circle cx="10" cy="10" r="10" fill="#A5A6F6" fill-opacity="0.3"/>
<mask id="mask0_1_7155" style="mask-type:alpha" maskUnits="userSpaceOnUse" x="4" y="4" width="12" height="12">
<rect x="4" y="4" width="12" height="12" fill="white"/>
</mask>
<g mask="url(#mask0_1_7155)">
<rect x="8" y="10.5" width="1" height="3.5" fill="#5D5FEF"/>
<rect x="11" y="10.5" width="1" height="3.5" fill="#5D5FEF"/>
<rect x="8" y="10.5" width="4" height="1" fill="#5D5FEF"/>
<path fill-rule="evenodd" clip-rule="evenodd" d="M5 8.56626C5 8.215 5.1843 7.88949 5.4855 7.70877L9.4855 5.30877C9.80219 5.11876 10.1978 5.11876 10.5145 5.30877L14.5145 7.70877C14.8157 7.88949 15 8.215 15 8.56626V14.0001C15 14.5524 14.5523 15.0001 14 15.0001H6C5.44772 15.0001 5 14.5524 5 14.0001V8.56626C5 8.56626 5 8.215 5 8.56626ZM14 9.50006V14.0001H6V9.50006H10H14ZM14 8.50006L10 6.16624L6 8.50006H10H14Z" fill="#5D5FEF"/>
</g>
</svg>
