<svg width="20" height="20" viewBox="0 0 20 20" fill="none" xmlns="http://www.w3.org/2000/svg">
<mask id="mask0" style="mask-type:alpha" maskUnits="userSpaceOnUse" x="0" y="0" width="20" height="20">
<rect width="20" height="20" fill="white"/>
</mask>
<g mask="url(#mask0)">
<path fill-rule="evenodd" clip-rule="evenodd" d="M10.8329 1.66675C10.3099 2.36313 9.99992 3.22874 9.99992 4.16675C9.99992 4.37925 10.0158 4.58803 10.0465 4.79197L9.99992 4.79175C7.49992 4.79175 6.66658 6.68341 6.66658 8.75008V14.1667H13.3333V8.75008C13.3333 8.58074 13.3277 8.41257 13.316 8.24653C13.5906 8.30348 13.8751 8.33342 14.1666 8.33342C14.4476 8.33342 14.7222 8.30559 14.9876 8.25254C14.9959 8.41638 14.9999 8.58233 14.9999 8.75008V13.3334L16.6666 14.1667V15.8334H3.33325V14.1667L4.99992 13.3334V8.75008C4.99992 6.18341 5.94992 4.05008 8.33325 3.48341V1.66675H10.8329ZM11.755 3.50526C12.045 2.44555 13.0149 1.66675 14.1666 1.66675C15.5473 1.66675 16.6666 2.78604 16.6666 4.16675C16.6666 5.35199 15.8418 6.34459 14.7348 6.60188C14.5523 6.64431 14.3621 6.66675 14.1666 6.66675C13.6432 6.66675 13.1574 6.50591 12.7558 6.23096C12.4268 6.00564 12.1543 5.70368 11.9642 5.35081C11.7743 4.99837 11.6666 4.59514 11.6666 4.16675C11.6666 3.93776 11.6974 3.71596 11.755 3.50526ZM11.6666 16.6667H8.33325C8.33325 17.5834 9.08325 18.3334 9.99992 18.3334C10.9166 18.3334 11.6666 17.5834 11.6666 16.6667Z" fill="white"/>
</g>
</svg>
