<svg width="20" height="20" viewBox="0 0 20 20" fill="none" xmlns="http://www.w3.org/2000/svg">
<mask id="mask0" style="mask-type:alpha" maskUnits="userSpaceOnUse" x="0" y="0" width="20" height="20">
<rect width="20" height="20" fill="white"/>
</mask>
<g mask="url(#mask0)">
<path fill-rule="evenodd" clip-rule="evenodd" d="M10 13.3334C8.15909 13.3334 6.66671 11.841 6.66671 10.0001C6.66671 8.15913 8.15909 6.66675 10 6.66675C11.841 6.66675 13.3334 8.15913 13.3334 10.0001C13.3334 11.841 11.841 13.3334 10 13.3334ZM10 11.6667C9.07957 11.6667 8.33337 10.9206 8.33337 10.0001C8.33337 9.07961 9.07957 8.33341 10 8.33341C10.9205 8.33341 11.6667 9.07961 11.6667 10.0001C11.6667 10.9206 10.9205 11.6667 10 11.6667ZM3.54152 4.51988C3.73732 4.18073 4.14286 4.02368 4.51602 4.14249L6.04683 4.62988C6.2511 4.47967 6.46304 4.34189 6.68142 4.21684C6.88946 4.0972 7.10456 3.98847 7.32595 3.89141L7.66926 2.322C7.75295 1.93943 8.09173 1.66675 8.48335 1.66675H11.5169C11.9085 1.66675 12.2472 1.93943 12.3309 2.322L12.6742 3.89141C12.9092 3.9944 13.137 4.11053 13.3568 4.23889C13.5617 4.35803 13.7609 4.48845 13.9532 4.62988L15.484 4.14249C15.8572 4.02368 16.2627 4.18073 16.4585 4.51988L17.9753 7.14697C18.1711 7.48612 18.1043 7.91585 17.8148 8.17961L16.6274 9.26164C16.6546 9.50744 16.668 9.75366 16.6678 9.99915C16.6681 10.2453 16.6547 10.4921 16.6274 10.7385L17.8148 11.8206C18.1043 12.0843 18.1711 12.5141 17.9753 12.8532L16.4585 15.4803C16.2627 15.8195 15.8572 15.9765 15.484 15.8577L13.9532 15.3703C13.7585 15.5135 13.5569 15.6453 13.3493 15.7657C13.1318 15.8923 12.9065 16.0069 12.6742 16.1088L12.3309 17.6782C12.2472 18.0607 11.9085 18.3334 11.5169 18.3334H8.48335C8.09173 18.3334 7.75295 18.0607 7.66926 17.6782L7.32595 16.1088C7.10714 16.0128 6.89447 15.9055 6.68869 15.7875C6.46774 15.6613 6.25336 15.5222 6.04683 15.3703L4.51602 15.8577C4.14286 15.9765 3.73732 15.8195 3.54151 15.4803L2.02476 12.8532C1.82895 12.5141 1.89571 12.0843 2.18519 11.8206L3.37268 10.7385C3.34539 10.4924 3.33201 10.2459 3.33224 10.0001C3.33201 9.75427 3.34539 9.50774 3.37268 9.26163L2.18519 8.17961C1.89572 7.91585 1.82895 7.48612 2.02476 7.14697L3.54152 4.51988ZM11.2275 5.07697L12.0051 5.41784C12.1809 5.49493 12.3516 5.58192 12.5164 5.67817L12.5191 5.67972C12.6727 5.76904 12.8219 5.86674 12.9659 5.97261L13.6499 6.47557L15.3505 5.93409L16.1965 7.39942L14.8773 8.6015L14.9708 9.44533C14.9912 9.62933 15.0013 9.81378 15.0011 9.99783C15.0013 10.1855 14.9913 10.3704 14.9708 10.5548L14.8773 11.3987L16.1965 12.6008L15.3505 14.0661L13.6499 13.5246L12.9659 14.0276C12.8201 14.1347 12.6691 14.2335 12.5135 14.3237C12.3477 14.4202 12.1789 14.5061 12.0051 14.5823L11.2275 14.9232L10.8461 16.6667H9.15409L8.77269 14.9232L7.99513 14.5823C7.83133 14.5105 7.67202 14.4301 7.51775 14.3417L7.51503 14.3401C7.34936 14.2455 7.18877 14.1412 7.03418 14.0276L6.35019 13.5246L4.64952 14.0661L3.80351 12.6008L5.12277 11.3987L5.0292 10.5548C5.00877 10.3706 4.99874 10.1859 4.99891 10.0016C4.99874 9.81423 5.00877 9.62956 5.0292 9.44533L5.12278 8.6015L3.80351 7.39942L4.64952 5.93409L6.35018 6.47557L7.03418 5.97261C7.18708 5.86018 7.34585 5.75695 7.50958 5.6632L7.5123 5.66163C7.66827 5.57194 7.8294 5.49049 7.99512 5.41784L8.77269 5.07697L9.15409 3.33341H10.8461L11.2275 5.07697Z" fill="white"/>
</g>
</svg>
