<svg width="24" height="24" viewBox="0 0 24 24" fill="none" xmlns="http://www.w3.org/2000/svg">
<mask id="mask0" style="mask-type:alpha" maskUnits="userSpaceOnUse" x="0" y="0" width="24" height="24">
<rect width="24" height="24" fill="white"/>
</mask>
<g mask="url(#mask0)">
<path fill-rule="evenodd" clip-rule="evenodd" d="M11.9998 16C9.79061 16 7.99975 14.2091 7.99975 12C7.99975 9.79086 9.79061 8 11.9998 8C14.2089 8 15.9998 9.79086 15.9998 12C15.9998 14.2091 14.2089 16 11.9998 16ZM11.9998 14C10.8952 14 9.99975 13.1046 9.99975 12C9.99975 10.8954 10.8952 10 11.9998 10C13.1043 10 13.9998 10.8954 13.9998 12C13.9998 13.1046 13.1043 14 11.9998 14ZM4.24953 5.42375C4.4845 5.01677 4.97114 4.82831 5.41893 4.97089L7.2559 5.55576C7.50102 5.37551 7.75535 5.21016 8.01742 5.06011C8.26706 4.91655 8.52518 4.78606 8.79085 4.6696L9.20282 2.7863C9.30325 2.32722 9.70978 2 10.1797 2H13.8199C14.2899 2 14.6964 2.32722 14.7968 2.7863L15.2088 4.6696C15.4907 4.79318 15.7641 4.93254 16.0279 5.08657C16.2738 5.22954 16.5128 5.38604 16.7436 5.55576L18.5805 4.97089C19.0283 4.82831 19.515 5.01678 19.7499 5.42375L21.57 8.57627C21.805 8.98325 21.7249 9.49893 21.3775 9.81544L19.9525 11.1139C19.9852 11.4088 20.0013 11.7043 20.0011 11.9989C20.0014 12.2942 19.9853 12.5904 19.9525 12.8862L21.3775 14.1846C21.7249 14.5011 21.805 15.0168 21.57 15.4238L19.7499 18.5763C19.515 18.9832 19.0283 19.1717 18.5805 19.0291L16.7436 18.4443C16.5099 18.6161 16.2679 18.7743 16.0189 18.9187C15.7579 19.0706 15.4875 19.2082 15.2088 19.3304L14.7968 21.2137C14.6964 21.6728 14.2899 22 13.8199 22H10.1797C9.70978 22 9.30325 21.6728 9.20282 21.2137L8.79085 19.3304C8.52828 19.2153 8.27307 19.0865 8.02613 18.9449C7.76099 18.7935 7.50374 18.6265 7.2559 18.4443L5.41893 19.0291C4.97114 19.1717 4.48449 18.9832 4.24952 18.5763L2.42942 15.4238C2.19445 15.0168 2.27456 14.5011 2.62193 14.1846L4.04693 12.8862C4.01417 12.5908 3.99812 12.295 3.9984 12C3.99812 11.705 4.01417 11.4092 4.04693 11.1139L2.62193 9.81544C2.27457 9.49893 2.19445 8.98324 2.42942 8.57627L4.24953 5.42375ZM13.4727 6.09226L14.4058 6.50131C14.6168 6.59382 14.8216 6.69821 15.0194 6.8137L15.0226 6.81557C15.207 6.92275 15.386 7.03999 15.5587 7.16703L16.3795 7.77058L18.4203 7.12081L19.4355 8.8792L17.8524 10.3217L17.9647 11.3343C17.9892 11.5551 18.0012 11.7764 18.0011 11.9973C18.0013 12.2225 17.9893 12.4444 17.9647 12.6657L17.8524 13.6783L19.4355 15.1208L18.4203 16.8792L16.3795 16.2294L15.5587 16.833C15.3839 16.9616 15.2026 17.0801 15.0159 17.1884C14.817 17.3042 14.6144 17.4072 14.4058 17.4987L13.4727 17.9077L13.015 20H10.9846L10.5269 17.9077L9.59386 17.4987C9.39731 17.4125 9.20613 17.316 9.02101 17.2099L9.01775 17.208C8.81895 17.0945 8.62624 16.9694 8.44072 16.833L7.61993 16.2294L5.57913 16.8792L4.56393 15.1208L6.14704 13.6783L6.03475 12.6657C6.01023 12.4446 5.99819 12.223 5.9984 12.0019C5.9982 11.777 6.01023 11.5554 6.03475 11.3343L6.14704 10.3217L4.56393 8.8792L5.57914 7.12081L7.61993 7.77058L8.44072 7.16703C8.6242 7.03211 8.81473 6.90824 9.01121 6.79574L9.01447 6.79386C9.20163 6.68623 9.395 6.58849 9.59386 6.50131L10.5269 6.09226L10.9846 4H13.015L13.4727 6.09226Z" fill="#2E3A59" fill-opacity="0.8"/>
</g>
</svg>
