<svg width="20" height="20" viewBox="0 0 20 20" fill="none" xmlns="http://www.w3.org/2000/svg">
<mask id="mask0" style="mask-type:alpha" maskUnits="userSpaceOnUse" x="0" y="0" width="20" height="20">
<rect width="20" height="20" fill="white"/>
</mask>
<g mask="url(#mask0)">
<path fill-rule="evenodd" clip-rule="evenodd" d="M7.50008 10.0001C7.50008 11.3684 8.63175 12.5001 10.0001 12.5001C11.3676 12.5001 12.5001 11.3684 12.5001 10.0001C12.5001 8.63258 11.3676 7.50008 10.0001 7.50008C8.63175 7.50008 7.50008 8.63258 7.50008 10.0001ZM1.75461 9.73675L1.66675 10.0001L1.75378 10.2634C1.77201 10.3192 3.67341 15.8334 10.0001 15.8334C16.3267 15.8334 18.2281 10.3192 18.2456 10.2634L18.3334 10.0001L18.2464 9.73675C18.2281 9.68092 16.3267 4.16675 10.0001 4.16675C3.67341 4.16675 1.77201 9.68092 1.75461 9.73675ZM3.43056 10.0001C3.8483 9.03508 5.56735 5.83341 10.0001 5.83341C14.4353 5.83341 16.1535 9.03842 16.5696 10.0001C16.1519 10.9651 14.4328 14.1667 10.0001 14.1667C5.56486 14.1667 3.84664 10.9617 3.43056 10.0001Z" fill="white"/>
</g>
</svg>
